<svg width="403" height="403" viewBox="0 0 403 403" fill="none" xmlns="http://www.w3.org/2000/svg">
<g clip-path="url(#clip0_3_146)">
<mask id="mask0_3_146" style="mask-type:luminance" maskUnits="userSpaceOnUse" x="0" y="0" width="403" height="403">
<path d="M403 0H0V403H403V0Z" fill="white"/>
</mask>
<g mask="url(#mask0_3_146)">
<mask id="mask1_3_146" style="mask-type:luminance" maskUnits="userSpaceOnUse" x="51" y="15" width="301" height="373">
<path d="M351.785 15.9521H51.6344V387.468H351.785V15.9521Z" fill="white"/>
</mask>
<g mask="url(#mask1_3_146)">
<path fill-rule="evenodd" clip-rule="evenodd" d="M225.473 330.166L242.188 221.616L241.91 221.579C241.667 223.135 240.551 226.207 235.548 226.733C229.631 227.355 228.338 222.261 228.105 220.967L227.792 221.028L211.34 331.014L211.067 331.933L212.76 332.437L219.5 334.448L225.973 331.151L225.473 330.166ZM235.96 231.045C235.994 230.627 235.684 230.261 235.266 230.227C234.849 230.193 234.483 230.503 234.449 230.921C231.897 262.053 227.63 293.02 221.668 323.683C221.588 324.094 221.857 324.491 222.267 324.572C222.678 324.651 223.076 324.383 223.156 323.972C229.129 293.255 233.403 262.232 235.96 231.045Z" fill="url(#paint0_linear_3_146)"/>
<path d="M296.531 190.137L301.887 187.141L297.491 211.849C293.388 211.632 290.235 228.594 290.119 236.538L290.124 236.563C286.219 237.449 282.445 238.838 278.897 240.696C277.452 241.459 276.011 242.323 274.986 243.596C273.96 244.87 273.424 246.643 273.985 248.18C274.546 249.716 276.85 250.989 278.351 250.332L278.376 250.378C278.26 250.438 278.149 250.509 278.033 250.574C275.895 251.858 273.632 253.819 273.894 256.295C274.142 258.598 277.274 260.109 279.321 259.028L279.336 259.053C278.695 259.422 278.063 259.801 277.431 260.187C276.542 260.728 275.626 261.32 275.092 262.213C274.557 263.105 274.526 264.401 275.309 265.093C276.047 265.745 277.163 265.644 278.128 265.471C281.442 264.934 284.698 264.092 287.855 262.955L287.981 263.293L283.681 288.517L281.2 303.059L225.974 331.153L225.473 330.168L242.187 221.616L241.91 221.574C241.957 221.274 241.978 220.97 241.97 220.665L296.531 190.137Z" fill="url(#paint1_linear_3_146)"/>
<path d="M266.836 165.468C267.329 165.539 267.828 165.565 268.326 165.549L268.346 166.095C268.013 168.32 267.164 171.623 265.026 172.618C263.677 173.245 262.088 173.033 260.605 172.806C258.579 172.498 256.551 172.188 254.521 171.876C253.167 171.673 251.667 171.38 250.883 170.32C250.07 169.213 250.691 167.783 250.99 166.457C251.264 165.322 251.596 164.201 251.985 163.099C253.202 163.539 254.468 163.825 255.754 163.953L266.836 165.468Z" fill="url(#paint2_linear_3_146)"/>
<path d="M250.313 157.308C251.069 157.869 252.228 158.056 253.824 158.187C259.004 158.617 264.229 158.775 269.423 159.069C270.099 159.128 270.78 159.116 271.454 159.033L272.849 159.069C273.369 162.007 272.707 164.768 270.57 165.269C269.834 165.443 269.082 165.538 268.326 165.552C267.828 165.568 267.329 165.541 266.836 165.471L255.753 163.955C254.466 163.827 253.2 163.54 251.984 163.101C251.402 162.871 250.863 162.544 250.389 162.135C248.974 160.897 248.656 158.392 250.268 157.371L250.313 157.308Z" fill="url(#paint3_linear_3_146)"/>
<path d="M139.775 373.819C137.325 371.93 135.444 369.402 134.338 366.512C133.232 363.622 132.944 360.484 133.507 357.441C134.069 354.399 135.46 351.57 137.526 349.267C139.592 346.964 142.254 345.275 145.217 344.387C146.187 344.345 147.158 344.326 148.108 344.316C158.784 344.179 169.459 344.044 180.133 343.911C183.599 343.866 187.454 344.311 190.749 343.012L190.784 343.096C194.559 341.763 199.258 342.743 202.982 344.88L202.871 345.077C197.97 347.068 192.628 347.265 187.288 347.038C185.231 346.954 183.174 346.8 181.143 346.669C179.653 346.568 178.142 346.487 176.631 346.452C172.433 346.335 168.213 346.558 164.307 347.735C162.701 348.21 161.155 348.867 159.699 349.695C155.833 351.913 152.559 356.199 153.559 360.539C154.393 364.157 157.855 366.527 161.255 368.017C162.703 368.649 164.188 369.193 165.702 369.644C169.551 370.774 173.527 371.416 177.536 371.554C180.486 371.673 183.441 371.587 186.378 371.297C188.147 371.125 189.91 370.892 191.663 370.609C198.323 369.538 204.877 367.755 211.394 365.981L211.717 366.031C211.091 369.729 209.884 373.303 208.14 376.622L208.308 377.739C204.018 378.391 199.716 378.952 195.403 379.422C180.688 381.044 165.646 381.726 151.215 378.421C147.203 377.501 143.146 376.196 139.563 374.207L139.775 373.819Z" fill="url(#paint4_linear_3_146)"/>
<path d="M175.409 120.063C176.979 118.61 178.847 117.516 180.883 116.858C182.918 116.199 185.073 115.991 187.197 116.248C188.066 116.36 189.021 116.612 189.486 117.36C189.669 117.702 189.76 118.087 189.747 118.476C189.735 118.864 189.62 119.243 189.415 119.573C188.997 120.227 188.446 120.787 187.798 121.215C186.042 122.526 184.127 123.609 182.099 124.439C184.492 123.843 187.339 124.07 189.729 124.676C190.84 124.954 192.083 125.551 192.285 126.678C192.498 127.885 191.381 128.903 190.31 129.497C186.505 131.619 182.082 131.867 177.677 131.386C175.701 131.158 173.738 130.831 171.796 130.406C165.611 129.097 159.16 127.44 153.085 129.183C150.725 129.86 148.366 131.194 147.36 133.432C146.683 134.948 146.708 136.676 146.749 138.339C146.845 142.315 146.943 146.29 147.043 150.264H146.951C145.981 151.143 145.512 152.426 144.986 153.629C144.46 154.831 143.763 156.069 142.571 156.62C142.275 156.78 141.942 156.856 141.607 156.842C141.272 156.828 140.946 156.723 140.666 156.539C140.064 156.064 139.999 155.185 140.044 154.417C140.12 153.225 140.342 152.048 140.706 150.911C140.405 151.343 140.032 151.72 139.605 152.027C138.392 152.876 136.406 152.765 135.754 151.439C135.209 150.322 135.83 149.019 136.406 147.917C138.781 143.355 140.514 138.388 140.856 133.259C140.972 131.506 140.927 129.737 141.22 128.009C141.513 126.28 142.186 124.538 143.487 123.36C144.956 122.036 147.019 121.602 148.995 121.44C152.294 121.172 155.609 121.524 158.918 121.395C162.228 121.265 165.649 120.586 168.256 118.545C170.545 116.756 172.097 114.007 174.734 112.79C175.81 112.289 177.362 112.234 177.922 113.28C178.162 113.854 178.185 114.495 177.988 115.085C177.54 116.923 176.626 118.614 175.335 119.997L175.409 120.063Z" fill="#FF8609"/>
<path d="M168.463 266.729C167.553 264.475 164.911 264.49 162.52 264.94L162.51 264.91C163.051 264.728 163.592 264.536 164.132 264.339C165.254 263.929 166.399 263.485 167.285 262.681C168.171 261.878 168.746 260.62 168.427 259.468C168.089 258.27 166.876 257.492 165.648 257.295C164.42 257.098 163.171 257.376 161.959 257.648C158.018 258.533 154.072 259.619 150.131 260.554L150.125 260.524C150.262 259.768 150.373 259.023 150.469 258.285H150.484L156.725 203.188L161.485 204.356L228.064 220.666C228.064 220.666 228.074 220.773 228.109 220.964L227.796 221.025L211.344 331.011L211.071 331.93L144.24 311.977L144.917 305.877L147.095 286.176L147.074 285.934C152.337 285.524 157.524 284.425 162.501 282.665C164.173 282.063 165.851 281.341 167.119 280.104C168.386 278.867 169.17 276.987 168.68 275.283C168.19 273.58 165.783 272.135 164.173 272.878L164.152 272.823C165.322 272.415 166.397 271.772 167.31 270.934C168.405 269.851 169.032 268.159 168.463 266.729Z" fill="url(#paint5_linear_3_146)"/>
<path d="M77.0637 294.277C83.1779 298.132 90.8026 298.536 98.0381 298.536C102.333 298.536 106.74 298.395 111.181 298.132L111.186 298.183C141.801 305.171 142.277 305.232 144.419 305.823L144.914 305.879L144.237 311.978L211.068 331.931L212.76 332.435L212.718 332.572C207.281 334.712 194.786 340.949 191.764 342.551C191.435 342.726 191.096 342.88 190.748 343.013C187.454 344.311 183.598 343.867 180.132 343.912C169.456 344.049 158.781 344.183 148.107 344.316C147.157 344.327 146.187 344.347 145.217 344.387C140.659 344.579 136.036 345.277 132.686 348.243C130.235 350.411 128.997 353.468 128.782 356.701L128.428 356.681C110.005 356.767 92.7693 354.19 75.0084 349.283C67.3887 347.176 59.2586 344.135 55.2215 337.339C52.0432 331.978 52.0835 325.277 53.3215 319.168C54.9939 310.892 59.097 302.777 66.1155 298.073C73.9778 292.807 76.6523 294.055 76.6523 294.055L76.6724 294.02C76.8009 294.11 76.9323 294.19 77.0637 294.277Z" fill="#FF8609"/>
<path d="M166.532 180.632C164.288 178.257 165.482 172.698 167.689 170.289C169.895 167.88 173.621 167.172 175.359 164.403C177.117 161.608 176.592 157.157 176.739 153.862C177.067 146.399 177.377 138.938 177.668 131.478" stroke="#FF8609" stroke-width="3.611" stroke-linecap="round" stroke-linejoin="round"/>
<path d="M172.089 141.745C170.896 141.397 169.705 141.048 168.517 140.699" stroke="#FF8609" stroke-width="3.611" stroke-linecap="round" stroke-linejoin="round"/>
<path d="M173.134 135.04C170.15 134.353 167.055 134.287 164.045 134.848C163.673 141.474 164.623 148.107 166.839 154.362C166.382 154.824 165.799 155.14 165.164 155.271C164.528 155.402 163.868 155.343 163.266 155.1" stroke="#FF8609" stroke-width="3.611" stroke-linecap="round" stroke-linejoin="round"/>
<path d="M159.219 140.058C157.591 139.568 155.855 139.568 154.227 140.058" stroke="#FF8609" stroke-width="3.611" stroke-linecap="round" stroke-linejoin="round"/>
<path d="M160.29 165.356C158.076 165.413 155.916 164.672 154.203 163.269" stroke="#FF8609" stroke-width="3.611" stroke-linecap="round" stroke-linejoin="round"/>
<path d="M117.158 224.966C109.843 229.623 104.137 236.418 100.818 244.43C98.8114 249.291 98.1192 255.744 102.207 259.053C104.647 261.029 108.048 261.206 111.191 261.211C119.793 261.231 128.385 260.665 136.91 259.518C136.952 260.418 136.991 261.312 137.036 262.212C137.405 270.225 137.776 278.241 138.148 286.258C138.285 289.255 138.423 292.251 138.562 295.247" stroke="#FF8609" stroke-width="3.611" stroke-linecap="round" stroke-linejoin="round"/>
<path d="M138.563 295.247C129.748 296.546 120.393 297.592 111.181 298.132C106.74 298.395 102.334 298.537 98.0385 298.537C90.803 298.537 83.1779 298.132 77.0641 294.277C76.9327 294.193 76.8013 294.109 76.6699 294.019C70.6165 290.012 67.029 283.147 64.634 276.268C60.5058 264.435 59.1516 251.408 62.3554 239.291C66.7473 222.672 79.5299 209.019 94.8351 201.198C108.751 194.083 124.571 191.42 140.241 191.506C141.808 191.511 143.371 191.545 144.93 191.607" stroke="#FF8609" stroke-width="3.611" stroke-linecap="round" stroke-linejoin="round"/>
<path d="M140.24 191.254C139.715 189.642 139.179 187.995 139.214 186.297C139.249 184.6 139.967 182.825 141.427 181.961C142.524 181.314 143.853 181.264 145.122 181.229C146.011 181.204 146.905 181.183 147.795 181.158L166.531 180.658C167.339 180.638 168.153 180.612 168.961 180.592C171.7 180.522 174.58 180.481 176.995 181.78C179.41 183.079 180.472 185.989 179.183 188.404" stroke="#FF8609" stroke-width="3.611" stroke-linecap="round" stroke-linejoin="round"/>
<path d="M173.933 188.833C175.671 188.717 177.422 188.614 179.188 188.525C207.954 187.08 240.161 189.268 267.174 197.959" stroke="#FF8609" stroke-width="3.611" stroke-linecap="round" stroke-linejoin="round"/>
<path d="M150.301 259.902L150.482 258.285L156.723 203.188L161.483 204.356L228.061 220.666C228.061 220.666 228.072 220.773 228.107 220.964C228.339 222.258 229.633 227.351 235.55 226.73C240.552 226.204 241.669 223.132 241.912 221.576C241.96 221.275 241.98 220.971 241.972 220.666L296.533 190.137L301.889 187.141L297.493 211.849" stroke="#FF8609" stroke-width="3.611" stroke-linecap="round" stroke-linejoin="round"/>
<path d="M287.982 263.292L283.682 288.516L281.201 303.059L225.973 331.153L219.5 334.448L212.759 332.436L211.067 331.931L144.237 311.977L144.914 305.878L147.092 286.177" stroke="#FF8609" stroke-width="3.611" stroke-linecap="round" stroke-linejoin="round"/>
<path d="M227.792 221.026L211.339 331.012" stroke="#FF8609" stroke-width="3.611" stroke-linecap="round" stroke-linejoin="round"/>
<path d="M242.238 221.293L242.187 221.616L225.472 330.168" stroke="#FF8609" stroke-width="3.611" stroke-linecap="round" stroke-linejoin="round"/>
<path d="M161.179 204.528L161.483 204.356L166.712 201.405L232.339 217.458L267.3 198.186L287.982 186.782L296.531 190.137L296.779 190.233" stroke="#FF8609" stroke-width="3.611" stroke-linecap="round" stroke-linejoin="round"/>
<path d="M290.118 236.537C290.235 228.595 293.388 211.632 297.491 211.849C300.821 212.227 299.431 218.463 298.911 222.031C297.903 228.938 299.219 235.962 299.103 242.94C298.987 249.918 296.975 257.522 291.22 261.468" stroke="#FF8609" stroke-width="3.611" stroke-linecap="round" stroke-linejoin="round"/>
<path d="M291.221 261.469C290.13 262.03 289.006 262.526 287.856 262.954C284.698 264.092 281.442 264.934 278.129 265.47C277.164 265.642 276.047 265.743 275.309 265.093C274.526 264.4 274.554 263.112 275.092 262.212C275.63 261.313 276.542 260.727 277.431 260.186C278.061 259.802 278.695 259.423 279.336 259.053C283.812 256.46 288.489 254.233 293.323 252.393" stroke="#FF8609" stroke-width="3.611" stroke-linecap="round" stroke-linejoin="round"/>
<path d="M279.361 259.008C279.346 259.013 279.336 259.023 279.319 259.028C277.273 260.109 274.14 258.598 273.893 256.294C273.63 253.817 275.893 251.858 278.031 250.574C278.147 250.509 278.258 250.438 278.374 250.378C283.087 247.608 288.285 245.763 293.69 244.94" stroke="#FF8609" stroke-width="3.611" stroke-linecap="round" stroke-linejoin="round"/>
<path d="M278.351 250.332C276.85 250.989 274.541 249.716 273.985 248.18C273.429 246.644 273.965 244.87 274.986 243.596C276.007 242.323 277.452 241.459 278.897 240.696C282.445 238.838 286.219 237.449 290.124 236.563C291.772 236.185 293.439 235.9 295.119 235.709" stroke="#FF8609" stroke-width="3.611" stroke-linecap="round" stroke-linejoin="round"/>
<path d="M150.123 260.523C150.26 259.767 150.371 259.022 150.467 258.284C150.75 256.066 150.866 253.898 150.963 251.529C150.998 250.624 151.251 249.619 150.685 248.911C149.937 247.981 148.365 248.214 147.494 249.033C146.623 249.851 146.246 251.048 145.802 252.16C144.08 256.392 140.995 259.93 137.035 262.21C136.984 262.241 136.934 262.266 136.883 262.296" stroke="#FF8609" stroke-width="3.611" stroke-linecap="round" stroke-linejoin="round"/>
<path d="M148.522 260.928C149.058 260.807 149.594 260.681 150.129 260.554C154.07 259.62 158.017 258.533 161.958 257.649C163.17 257.376 164.419 257.098 165.646 257.295C166.874 257.493 168.087 258.271 168.425 259.468C168.744 260.62 168.168 261.873 167.284 262.682C166.4 263.49 165.252 263.93 164.131 264.339C163.59 264.536 163.049 264.728 162.508 264.91C157.277 266.721 151.918 268.14 146.476 269.154" stroke="#FF8609" stroke-width="3.611" stroke-linecap="round" stroke-linejoin="round"/>
<path d="M162.518 264.94C164.908 264.49 167.551 264.475 168.461 266.729C169.032 268.159 168.405 269.851 167.308 270.933C166.395 271.771 165.321 272.414 164.15 272.822C163.867 272.938 163.579 273.044 163.296 273.15C158.084 275.064 152.685 276.426 147.188 277.213" stroke="#FF8609" stroke-width="3.611" stroke-linecap="round" stroke-linejoin="round"/>
<path d="M164.17 272.878C165.782 272.135 168.193 273.58 168.678 275.283C169.163 276.986 168.384 278.86 167.117 280.103C165.849 281.346 164.17 282.064 162.499 282.664C157.522 284.424 152.335 285.523 147.072 285.934C144.152 286.191 141.201 286.282 138.22 286.252" stroke="#FF8609" stroke-width="3.611" stroke-linecap="round" stroke-linejoin="round"/>
<path d="M283.965 288.568C290.942 285.445 296.147 283.444 303.787 283.641C311.427 283.838 319.456 287.931 322.043 295.121C324.64 302.337 321.235 310.28 317.167 316.778C308.178 331.123 295.667 342.967 281.413 352.188C278.876 353.831 276.289 355.387 273.652 356.857C272.454 357.529 271.246 358.176 270.034 358.808C267.967 359.894 265.878 360.925 263.768 361.9C261.767 362.83 259.751 363.716 257.72 364.558C254.157 366.034 250.55 367.388 246.897 368.621C244.826 369.323 242.741 369.99 240.642 370.621C236.756 371.788 232.838 372.84 228.888 373.775C222.097 375.392 215.22 376.695 208.307 377.741C204.017 378.393 199.716 378.954 195.402 379.424C180.688 381.046 165.646 381.728 151.214 378.423C147.202 377.504 143.145 376.198 139.563 374.209C136.758 372.702 134.287 370.645 132.296 368.161C129.787 364.886 128.539 360.819 128.78 356.7C128.997 353.468 130.235 350.409 132.684 348.242C136.034 345.276 140.657 344.578 145.215 344.387C146.185 344.345 147.155 344.326 148.105 344.316C158.782 344.179 169.457 344.044 180.13 343.911C183.597 343.866 187.452 344.311 190.747 343.012C191.094 342.879 191.434 342.725 191.762 342.55C194.785 340.949 207.28 334.714 212.717 332.571" stroke="#FF8609" stroke-width="3.611" stroke-linecap="round" stroke-linejoin="round"/>
<path d="M76.6493 294.055C76.6493 294.055 73.9765 292.807 66.1126 298.072C59.0957 302.776 54.9927 310.891 53.3202 319.168C52.0823 325.276 52.042 331.977 55.2202 337.338C59.2574 344.134 67.3875 347.176 75.0071 349.283C92.7681 354.189 110.003 356.766 128.426 356.68" stroke="#FF8609" stroke-width="3.611" stroke-linecap="round" stroke-linejoin="round"/>
<path d="M144.419 305.823C142.278 305.232 141.801 305.171 111.186 298.183" stroke="#FF8609" stroke-width="3.611" stroke-linecap="round" stroke-linejoin="round"/>
<path d="M228.949 374.037C237.504 379.326 246.478 382.576 256.346 384.522C258.231 384.896 260.146 385.199 262.066 385.401C267.275 385.951 272.551 385.76 277.502 384.132C284.278 381.908 290.342 376.583 291.939 369.631C293.363 363.426 289.548 356.113 283.798 353.34C283.11 353.005 282.391 352.74 281.651 352.547" stroke="#FF8609" stroke-width="3.611" stroke-linecap="round" stroke-linejoin="round"/>
<path d="M147.795 181.193V181.158C147.543 170.859 147.292 160.562 147.042 150.265C146.94 146.288 146.843 142.313 146.748 138.34C146.706 136.677 146.682 134.95 147.359 133.434C148.367 131.195 150.724 129.861 153.084 129.184C159.158 127.441 165.61 129.1 171.795 130.407C173.737 130.832 175.7 131.16 177.676 131.387C182.084 131.867 186.504 131.62 190.309 129.498C191.38 128.902 192.497 127.887 192.284 126.679C192.082 125.552 190.839 124.958 189.728 124.678C187.338 124.072 184.493 123.844 182.098 124.441" stroke="#FF8609" stroke-width="3.611" stroke-linecap="round" stroke-linejoin="round"/>
<path d="M182.099 124.439C184.127 123.609 186.042 122.526 187.798 121.215C188.446 120.787 188.997 120.228 189.415 119.573C189.62 119.243 189.735 118.864 189.747 118.476C189.76 118.087 189.669 117.702 189.486 117.36C189.021 116.612 188.066 116.36 187.197 116.248C185.073 115.991 182.918 116.199 180.883 116.858C178.847 117.516 176.979 118.61 175.409 120.063C175.57 119.922 175.732 119.785 175.899 119.649" stroke="#FF8609" stroke-width="3.611" stroke-linecap="round" stroke-linejoin="round"/>
<path d="M140.705 150.906C141.225 150.114 141.652 149.265 141.979 148.375" stroke="#FF8609" stroke-width="3.611" stroke-linecap="round" stroke-linejoin="round"/>
<path d="M175.145 120.205C175.211 120.134 175.277 120.069 175.337 119.998C176.629 118.616 177.542 116.924 177.99 115.086C178.188 114.497 178.164 113.855 177.924 113.281C177.364 112.235 175.813 112.291 174.736 112.791C172.099 114.008 170.547 116.758 168.258 118.546C165.651 120.588 162.225 121.265 158.921 121.396C155.616 121.528 152.296 121.174 148.997 121.442C147.021 121.603 144.96 122.038 143.489 123.362C142.186 124.537 141.513 126.277 141.222 128.01C140.931 129.744 140.974 131.507 140.858 133.26C140.515 138.389 138.781 143.356 136.408 147.919C135.832 149.02 135.211 150.324 135.756 151.441C136.408 152.764 138.394 152.876 139.607 152.028C140.035 151.722 140.408 151.344 140.708 150.912" stroke="#FF8609" stroke-width="3.611" stroke-linecap="round" stroke-linejoin="round"/>
<path d="M141.806 148.354C141.359 149.168 140.99 150.023 140.705 150.906V150.911C140.341 152.049 140.118 153.226 140.042 154.418C139.997 155.186 140.063 156.065 140.664 156.54C140.945 156.724 141.27 156.829 141.605 156.843C141.941 156.857 142.274 156.78 142.569 156.621C143.761 156.07 144.458 154.827 144.984 153.629C145.51 152.432 145.98 151.143 146.95 150.264" stroke="#FF8609" stroke-width="3.611" stroke-linecap="round" stroke-linejoin="round"/>
<path d="M251.985 163.099C251.596 164.201 251.264 165.322 250.99 166.457C250.691 167.781 250.07 169.211 250.883 170.319C251.666 171.38 253.167 171.673 254.521 171.875C256.548 172.188 258.576 172.499 260.605 172.805C262.086 173.032 263.677 173.245 265.026 172.618C267.164 171.623 268.013 168.318 268.346 166.095" stroke="#FF8609" stroke-width="3.611" stroke-linecap="round" stroke-linejoin="round"/>
<path d="M250.267 157.369C248.656 158.39 248.974 160.895 250.388 162.134C250.862 162.543 251.401 162.869 251.984 163.099C253.2 163.539 254.466 163.825 255.753 163.953L266.835 165.469C267.329 165.539 267.828 165.566 268.326 165.55C269.082 165.536 269.834 165.441 270.57 165.267C272.707 164.767 273.369 162.008 272.849 159.067" stroke="#FF8609" stroke-width="3.611" stroke-linecap="round" stroke-linejoin="round"/>
<path d="M250.313 157.308C251.068 157.869 252.227 158.056 253.824 158.187C259.003 158.617 264.228 158.775 269.422 159.069C270.099 159.128 270.78 159.116 271.454 159.033C271.781 158.984 272.101 158.891 272.404 158.756C273.525 158.181 274.404 157.224 274.88 156.057C277.735 149.776 277.567 148.902 285.547 142.177C312.07 119.813 301.534 99.086 283.536 96.3573C270.045 94.3108 238.469 100.789 247.777 127.695C254.356 146.714 249.207 150.762 249.212 154.284C249.211 155.848 249.569 156.762 250.313 157.308Z" stroke="#FF8609" stroke-width="3.611" stroke-linecap="round" stroke-linejoin="round"/>
<path d="M267.684 155.919C271.09 148.4 274.496 140.88 277.902 133.357C278.286 132.514 278.731 131.604 279.59 131.179C280.413 130.776 281.404 130.917 282.328 130.856C283.215 130.792 284.078 130.541 284.861 130.118C285.643 129.696 286.326 129.112 286.866 128.405C287.327 127.833 287.647 127.16 287.799 126.441C287.951 125.722 287.93 124.977 287.74 124.267C287.505 123.55 287.048 122.926 286.436 122.485C285.825 122.044 285.088 121.808 284.334 121.811C282.798 121.877 281.399 123.317 281.681 124.747C281.746 125.117 281.926 125.456 282.195 125.717C282.465 125.978 282.811 126.146 283.182 126.197C283.95 126.258 284.728 125.515 284.496 124.823" stroke="#FF8609" stroke-width="3.611" stroke-linecap="round" stroke-linejoin="round"/>
<path d="M254.789 155.797C257.776 145.619 259.939 135.217 261.257 124.691C259.716 124.595 258.776 122.569 259.741 121.422C260.706 120.275 263.01 120.679 263.455 122.083" stroke="#FF8609" stroke-width="3.611" stroke-linecap="round" stroke-linejoin="round"/>
<path d="M266.093 122.792C265.775 124.227 267.083 125.622 268.579 125.991C270.075 126.36 271.666 125.966 273.132 125.48C274.597 124.995 276.073 124.409 277.619 124.404" stroke="#FF8609" stroke-width="3.611" stroke-linecap="round" stroke-linejoin="round"/>
<path d="M188.258 91.5352C191.497 92.3328 194.978 91.515 197.878 89.8677C200.855 88.1747 203.366 85.5624 204.609 82.374C207.433 75.0982 201.251 64.9367 192.906 65.9069C185.135 66.8161 178.293 75.5071 180.35 83.2023C181.381 87.0581 184.291 90.5549 188.258 91.5352Z" stroke="#FF8609" stroke-width="3.611" stroke-linecap="round" stroke-linejoin="round"/>
<path d="M188.97 62.5767C185.802 63.7504 183.052 65.8355 181.067 68.5692C180.125 66.961 178.769 65.6332 177.142 64.7239L172.412 70.7572L177.202 74.8195" stroke="#FF8609" stroke-width="3.611" stroke-linecap="round" stroke-linejoin="round"/>
<path d="M175.929 77.2954C175.964 79.2714 175.999 81.2473 176.035 83.2224C176.077 83.7056 176.019 84.1922 175.867 84.6527C175.266 86.1282 173.063 86.2441 172.204 87.5883C173.209 89.1495 174.215 90.7128 175.221 92.2774C175.372 92.5099 175.549 92.7677 175.822 92.818C176.098 92.8252 176.365 92.7257 176.569 92.5401C177.792 91.6661 179.013 90.7905 180.233 89.9127" stroke="#FF8609" stroke-width="3.611" stroke-linecap="round" stroke-linejoin="round"/>
<path d="M181.886 92.2622C183.218 93.4406 184.816 94.2781 186.543 94.7029C188.269 95.1282 190.073 95.1282 191.8 94.7029C191.997 96.6029 192.199 98.5075 192.396 100.407C195.287 99.8852 198.142 99.1842 200.945 98.3085C200.162 96.7972 199.378 95.286 198.595 93.7747C198.648 93.7936 198.705 93.8016 198.761 93.7978C198.818 93.7941 198.873 93.7789 198.923 93.7538C198.974 93.7281 199.019 93.6929 199.055 93.6496C199.092 93.6064 199.119 93.556 199.135 93.5019" stroke="#FF8609" stroke-width="3.611" stroke-linecap="round" stroke-linejoin="round"/>
<path d="M201.244 91.4235C202.793 90.7392 204.181 89.7364 205.318 88.4799C206.454 87.2239 207.313 85.7425 207.839 84.1321C208.062 83.4449 208.264 82.6717 208.86 82.2679C210.002 81.4996 211.624 82.6062 212.887 82.0655C212.775 79.1249 212.664 76.1821 212.554 73.2381C211.129 73.6579 209.709 74.0777 208.284 74.5013" stroke="#FF8609" stroke-width="3.611" stroke-linecap="round" stroke-linejoin="round"/>
<path d="M206.701 71.9548C206.46 70.3689 205.811 68.8727 204.817 67.6129C203.824 66.3535 202.52 65.3737 201.034 64.7697C201.16 63.0565 201.292 61.3438 201.418 59.6306L196.12 58.9807C195.715 58.8947 195.295 58.919 194.903 59.0513C194.656 59.1848 194.45 59.3825 194.307 59.6234C194.164 59.8648 194.089 60.1402 194.09 60.4206C194.1 60.9823 194.213 61.5369 194.423 62.0578" stroke="#FF8609" stroke-width="3.611" stroke-linecap="round" stroke-linejoin="round"/>
<path d="M190.785 343.098C194.559 341.764 199.258 342.744 202.982 344.882C204.132 345.533 205.2 346.318 206.166 347.221C210.001 350.839 211.936 356.19 212.043 361.46C212.069 362.991 211.961 364.521 211.719 366.033C211.093 369.73 209.886 373.305 208.142 376.624" stroke="#FF8609" stroke-width="3.611" stroke-linecap="round" stroke-linejoin="round"/>
<path d="M202.871 345.079C197.97 347.07 192.628 347.267 187.288 347.039C185.231 346.955 183.174 346.802 181.144 346.67C179.653 346.57 178.142 346.489 176.632 346.453C172.434 346.337 168.213 346.559 164.307 347.737C162.701 348.211 161.155 348.869 159.699 349.697C155.834 351.915 152.559 356.2 153.56 360.541C154.393 364.158 157.855 366.529 161.255 368.019C162.703 368.651 164.188 369.194 165.702 369.646C169.551 370.776 173.527 371.417 177.536 371.556C180.486 371.675 183.441 371.589 186.379 371.298C188.147 371.127 189.91 370.894 191.664 370.611C198.323 369.54 204.877 367.756 211.394 365.983" stroke="#FF8609" stroke-width="3.611" stroke-miterlimit="10" stroke-linecap="round"/>
<path d="M240.727 370.904C242.537 371.705 244.386 372.411 246.268 373.021C249.536 374.078 252.886 374.861 256.283 375.361C257.799 375.588 259.325 375.76 260.851 375.881C263.039 376.085 265.242 376.082 267.43 375.871C269.011 375.712 270.565 375.349 272.053 374.79C275.585 373.436 278.708 370.54 279.466 366.832C280.224 363.123 277.985 358.802 274.287 358.009" stroke="#FF8609" stroke-width="3.611" stroke-miterlimit="10" stroke-linecap="round"/>
<path d="M191.658 370.586C192.995 366.676 193.293 362.487 192.524 358.428C191.755 354.368 189.946 350.578 187.272 347.428" stroke="#FF8609" stroke-width="3.611" stroke-miterlimit="10" stroke-linecap="round"/>
<path d="M177.561 371.015C181.659 363.81 181.27 354.28 176.601 347.428" stroke="#FF8609" stroke-width="3.611" stroke-miterlimit="10" stroke-linecap="round"/>
<path d="M165.712 369.616C167.328 366.187 168.052 362.407 167.819 358.624C167.586 354.841 166.402 351.178 164.378 347.974" stroke="#FF8609" stroke-width="3.611" stroke-miterlimit="10" stroke-linecap="round"/>
<path d="M270.136 358.46C270.101 358.576 270.07 358.693 270.035 358.809C268.489 364.193 267.594 369.744 267.372 375.342" stroke="#FF8609" stroke-width="3.611" stroke-miterlimit="10" stroke-linecap="round"/>
<path d="M256.29 375.336C256.781 371.774 257.269 368.21 257.756 364.644" stroke="#FF8609" stroke-width="3.611" stroke-miterlimit="10" stroke-linecap="round"/>
<path d="M246.366 372.728C246.294 371.497 246.54 370.268 247.08 369.16" stroke="#FF8609" stroke-width="3.611" stroke-miterlimit="10" stroke-linecap="round"/>
<path d="M145.29 344.366C145.265 344.371 145.245 344.382 145.219 344.387C142.256 345.275 139.595 346.964 137.528 349.267C135.462 351.57 134.071 354.399 133.509 357.441C132.946 360.483 133.234 363.622 134.34 366.512C135.446 369.402 137.327 371.93 139.777 373.819C139.909 373.921 140.04 374.022 140.176 374.118" stroke="#FF8609" stroke-width="3.611" stroke-miterlimit="10" stroke-linecap="round"/>
<path d="M262.046 385.603C267.912 386.31 273.9 386.862 279.69 385.684C285.481 384.506 291.126 381.339 293.995 376.175C295.172 374.054 295.84 371.688 295.945 369.265C296.051 366.841 295.59 364.426 294.601 362.211C293.612 359.996 292.121 358.042 290.246 356.502C288.371 354.963 286.164 353.881 283.798 353.342C283.748 353.326 283.697 353.316 283.647 353.306" stroke="#FF8609" stroke-width="3.611" stroke-miterlimit="10" stroke-linecap="round"/>
<path d="M170.992 230.535L209.985 239.807" stroke="#FF8609" stroke-width="3.611" stroke-linecap="round" stroke-linejoin="round"/>
<path d="M177.647 240.287L202.376 246.704" stroke="#FF8609" stroke-width="3.611" stroke-linecap="round" stroke-linejoin="round"/>
<path d="M230.434 233.627L219.737 312.811" stroke="#FF8609" stroke-width="3.611" stroke-linecap="round" stroke-linejoin="round"/>
<path d="M115.866 152.091L120.658 150.554C120.73 150.531 120.807 150.53 120.879 150.552C120.951 150.574 121.015 150.618 121.062 150.678C121.108 150.737 121.135 150.809 121.139 150.885C121.143 150.96 121.124 151.035 121.084 151.099L118.443 155.381C118.405 155.443 118.386 155.515 118.388 155.588C118.391 155.661 118.415 155.731 118.458 155.791L121.4 159.873C121.444 159.934 121.468 160.007 121.469 160.083C121.47 160.158 121.448 160.232 121.406 160.294C121.364 160.357 121.304 160.405 121.234 160.432C121.164 160.459 121.087 160.465 121.014 160.447L116.124 159.258C116.053 159.241 115.979 159.245 115.91 159.27C115.842 159.295 115.783 159.34 115.739 159.399L112.767 163.459C112.722 163.52 112.66 163.565 112.589 163.59C112.518 163.614 112.44 163.616 112.368 163.596C112.296 163.575 112.231 163.532 112.183 163.474C112.136 163.416 112.107 163.344 112.102 163.269L111.721 158.251C111.716 158.179 111.689 158.11 111.644 158.052C111.599 157.994 111.539 157.952 111.469 157.929L106.689 156.356C106.618 156.333 106.555 156.288 106.51 156.227C106.465 156.167 106.439 156.095 106.436 156.019C106.434 155.944 106.454 155.87 106.495 155.806C106.536 155.743 106.595 155.694 106.664 155.665L111.319 153.752C111.386 153.725 111.444 153.678 111.484 153.617C111.525 153.557 111.547 153.486 111.547 153.413L111.566 148.381C111.566 148.305 111.59 148.232 111.633 148.171C111.676 148.109 111.738 148.062 111.808 148.036C111.879 148.01 111.956 148.006 112.029 148.026C112.102 148.045 112.167 148.086 112.216 148.143L115.473 151.979C115.52 152.034 115.582 152.074 115.653 152.094C115.722 152.114 115.797 152.113 115.866 152.091Z" stroke="#FF8609" stroke-width="3.611" stroke-miterlimit="10"/>
<path d="M291.05 69.4717L298.29 71.043C298.398 71.067 298.496 71.1232 298.571 71.2047C298.646 71.2857 298.694 71.3881 298.71 71.4977C298.725 71.6072 298.707 71.7185 298.657 71.8175C298.607 71.9162 298.529 71.9976 298.432 72.0505L291.909 75.5629C291.815 75.6137 291.738 75.6914 291.687 75.7863C291.637 75.8807 291.616 75.9886 291.627 76.0952L292.369 83.4659C292.38 83.5763 292.357 83.6872 292.303 83.7841C292.249 83.8811 292.167 83.9592 292.067 84.0079C291.967 84.0566 291.855 84.0734 291.745 84.0566C291.636 84.0394 291.534 83.989 291.454 83.9126L286.098 78.7953C286.02 78.7214 285.922 78.6719 285.817 78.6534C285.711 78.635 285.602 78.648 285.504 78.6908L278.724 81.6747C278.622 81.7192 278.509 81.7313 278.4 81.7099C278.292 81.6885 278.192 81.6344 278.115 81.5546C278.038 81.4749 277.987 81.3733 277.969 81.2637C277.952 81.1541 277.968 81.042 278.016 80.9421L281.228 74.2674C281.274 74.1705 281.291 74.0626 281.276 73.9564C281.261 73.8502 281.215 73.7507 281.144 73.6705L276.211 68.144C276.136 68.0613 276.09 67.9576 276.076 67.8476C276.063 67.7372 276.084 67.6255 276.136 67.5277C276.188 67.4295 276.269 67.3497 276.368 67.2989C276.466 67.2485 276.578 67.2292 276.688 67.2443L284.03 68.2363C284.136 68.2506 284.244 68.2334 284.34 68.1859C284.437 68.1389 284.517 68.0646 284.571 67.9718L288.303 61.5725C288.359 61.4768 288.443 61.4004 288.543 61.3534C288.644 61.3068 288.756 61.2921 288.865 61.3114C288.975 61.3307 289.076 61.3828 289.154 61.4609C289.233 61.5394 289.286 61.6397 289.306 61.7488L290.631 69.0373C290.65 69.1431 290.7 69.2404 290.775 69.3181C290.849 69.3953 290.945 69.4487 291.05 69.4717Z" stroke="#FF8609" stroke-width="3.611" stroke-miterlimit="10"/>
<path d="M310.093 185.357L350.754 149.333" stroke="#FF8609" stroke-width="3.611" stroke-linecap="round" stroke-linejoin="round"/>
<path d="M304.743 178.223L309.38 168.593" stroke="#FF8609" stroke-width="3.611" stroke-linecap="round" stroke-linejoin="round"/>
<path d="M296.896 176.44L300.106 141.129" stroke="#FF8609" stroke-width="3.611" stroke-linecap="round" stroke-linejoin="round"/>
<path d="M309.38 197.84L319.01 198.197" stroke="#FF8609" stroke-width="3.611" stroke-linecap="round" stroke-linejoin="round"/>
<path d="M309.737 208.897L339.697 232.081" stroke="#FF8609" stroke-width="3.611" stroke-linecap="round" stroke-linejoin="round"/>
<path d="M323.659 321.618C326.7 317.946 328.835 313.609 329.889 308.959C330.944 304.309 330.889 299.476 329.73 294.851" stroke="url(#paint6_linear_3_146)" stroke-width="3.611" stroke-linecap="round" stroke-linejoin="round"/>
<path fill-rule="evenodd" clip-rule="evenodd" d="M212.719 332.573C207.282 334.716 194.787 340.951 191.765 342.553C191.435 342.727 191.096 342.881 190.748 343.014L190.784 343.098C194.558 341.765 199.257 342.745 202.981 344.882C204.131 345.533 205.2 346.318 206.165 347.221C210 350.84 211.936 356.19 212.042 361.46C212.068 362.991 211.96 364.521 211.718 366.034C211.092 369.73 209.885 373.305 208.141 376.624L208.309 377.741C215.221 376.695 222.098 375.392 228.889 373.775C232.84 372.84 236.758 371.788 240.643 370.621C242.742 369.99 244.827 369.323 246.898 368.621C250.551 367.388 254.159 366.034 257.721 364.558C259.753 363.716 261.769 362.83 263.77 361.9C265.88 360.925 267.969 359.894 270.036 358.808C271.248 358.176 272.456 357.529 273.653 356.857C276.291 355.387 278.878 353.831 281.414 352.188C295.669 342.967 308.18 331.123 317.169 316.778C321.236 310.28 324.642 302.337 322.045 295.121C319.458 287.931 311.429 283.838 303.789 283.641C296.149 283.444 290.944 285.445 283.966 288.568L283.683 288.517L281.202 303.059L225.974 331.153L219.502 334.448L212.761 332.437L212.719 332.573ZM318.308 295.238C318.206 294.832 317.794 294.586 317.389 294.687C316.983 294.789 316.736 295.201 316.838 295.607C317.404 297.87 317.703 299.91 317.514 302.295C317.325 304.689 316.64 307.473 315.187 311.211C312.998 316.841 310.078 319.969 307.424 322.813C306.587 323.708 305.778 324.576 305.025 325.485C304.758 325.807 304.803 326.285 305.125 326.552C305.448 326.819 305.926 326.774 306.193 326.451C306.871 325.632 307.631 324.819 308.436 323.958C311.118 321.088 314.294 317.69 316.6 311.76C318.085 307.941 318.82 305.006 319.025 302.415C319.231 299.814 318.9 297.6 318.308 295.238Z" fill="#FF8609"/>
<path d="M209.999 202.969C220.323 192.726 221.617 174.707 212.862 163.096C208.331 157.088 201.495 152.617 198.871 145.564C195.563 136.673 200.075 126.845 205.42 119.005C210.764 111.165 217.265 103.461 218.461 94.051" stroke="url(#paint7_linear_3_146)" stroke-width="3.611" stroke-linecap="round" stroke-linejoin="round"/>
<path d="M242.724 203.308C240.985 197.534 244.85 191.338 249.923 188.079C254.997 184.821 261.09 183.671 266.841 181.866C271.187 180.502 275.471 178.694 278.99 175.802C282.509 172.911 285.214 168.819 285.687 164.289" stroke="url(#paint8_linear_3_146)" stroke-width="3.611" stroke-linecap="round" stroke-linejoin="round"/>
<path d="M153.025 102.026L144.465 93.4654" stroke="url(#paint9_linear_3_146)" stroke-width="3.611" stroke-linecap="round" stroke-linejoin="round"/>
<path d="M144.871 102.916L151.355 92.2534" stroke="url(#paint10_linear_3_146)" stroke-width="3.611" stroke-linecap="round" stroke-linejoin="round"/>
<path d="M314.658 135.656L324.34 130.038" stroke="url(#paint11_linear_3_146)" stroke-width="3.611" stroke-linecap="round" stroke-linejoin="round"/>
<path d="M321.08 138.652C320.115 135.147 318.715 131.778 316.912 128.622" stroke="url(#paint12_linear_3_146)" stroke-width="3.611" stroke-linecap="round" stroke-linejoin="round"/>
<path d="M128.902 132.925C127.475 131.142 126.048 129.359 124.621 127.576" stroke="url(#paint13_linear_3_146)" stroke-width="3.611" stroke-linecap="round" stroke-linejoin="round"/>
<path d="M123.174 133.62C125.316 131.244 127.458 128.868 129.6 126.492" stroke="url(#paint14_linear_3_146)" stroke-width="3.611" stroke-linecap="round" stroke-linejoin="round"/>
<path d="M242.682 69.0809C240.823 66.6457 239.487 63.8528 238.758 60.8778" stroke="#FF8609" stroke-width="3.611" stroke-linecap="round" stroke-linejoin="round"/>
<path d="M236.33 68.0726C238.472 65.6966 240.614 63.3205 242.757 60.9449" stroke="#FF8609" stroke-width="3.611" stroke-linecap="round" stroke-linejoin="round"/>
<path d="M205.137 179.126C202.886 177.997 201.06 176.171 199.932 173.92" stroke="#FF8609" stroke-width="3.611" stroke-linecap="round" stroke-linejoin="round"/>
<path d="M199.524 180.364C201.694 178.244 203.396 175.692 204.519 172.874" stroke="#FF8609" stroke-width="3.611" stroke-linecap="round" stroke-linejoin="round"/>
<path d="M117.489 273.456L101.439 275.061L114.457 287.722L117.489 273.456Z" stroke="url(#paint15_linear_3_146)" stroke-width="3.611" stroke-linecap="round" stroke-linejoin="round"/>
<path d="M81.1075 280.411L87.171 254.909L69.6942 268.284L81.1075 280.411Z" stroke="url(#paint16_linear_3_146)" stroke-width="3.611" stroke-linecap="round" stroke-linejoin="round"/>
<path d="M95.9098 231.547L106.967 223.521L97.5151 219.241L95.9098 231.547Z" stroke="url(#paint17_linear_3_146)" stroke-width="3.611" stroke-linecap="round" stroke-linejoin="round"/>
<path d="M125.158 237.253L126.05 252.412L137.106 244.565L125.158 237.253Z" stroke="url(#paint18_linear_3_146)" stroke-width="3.611" stroke-linecap="round" stroke-linejoin="round"/>
<path d="M137.998 214.425L125.336 205.152L140.851 199.089L137.998 214.425Z" stroke="url(#paint19_linear_3_146)" stroke-width="3.611" stroke-linecap="round" stroke-linejoin="round"/>
<path d="M153.869 196.057L166.175 194.809L158.328 188.211L153.869 196.057Z" stroke="url(#paint20_linear_3_146)" stroke-width="3.611" stroke-linecap="round" stroke-linejoin="round"/>
<path d="M185.792 193.738L193.639 203.012L200.594 193.382L185.792 193.738Z" stroke="url(#paint21_linear_3_146)" stroke-width="3.611" stroke-linecap="round" stroke-linejoin="round"/>
<path d="M230.555 195.523L223.243 210.146L240.363 208.006L230.555 195.523Z" stroke="url(#paint22_linear_3_146)" stroke-width="3.611" stroke-linecap="round" stroke-linejoin="round"/>
<path d="M224.862 205.046C233.389 199.528 238.267 188.858 236.863 178.799C235.548 169.383 229.433 161.454 225.436 152.827C219.298 139.585 218.327 123.451 225.248 110.6C232.993 96.2142 248.901 88.1143 258.57 74.9446C262.583 69.413 265.426 63.1207 266.925 56.4527C268.424 49.7852 268.547 42.8817 267.288 36.1643C266.303 31.0677 264.428 25.9903 260.89 22.1916C257.353 18.3929 251.924 16.087 246.867 17.2594C241.81 18.4319 237.722 23.6571 238.731 28.7491" stroke="#FF8609" stroke-width="3.611" stroke-linecap="round" stroke-linejoin="round"/>
<path d="M84.4432 241.217L77.0813 238.81" stroke="#FF8609" stroke-width="3.611" stroke-linecap="round" stroke-linejoin="round"/>
<path d="M79.9187 242.9C80.3616 240.646 81.1646 238.479 82.2964 236.48" stroke="#FF8609" stroke-width="3.611" stroke-linecap="round" stroke-linejoin="round"/>
<path d="M110.445 210.461L105.41 205.988" stroke="#FF8609" stroke-width="3.611" stroke-linecap="round" stroke-linejoin="round"/>
<path d="M104.151 211.247C106.497 209.325 108.659 207.19 110.611 204.87" stroke="#FF8609" stroke-width="3.611" stroke-linecap="round" stroke-linejoin="round"/>
<path d="M144.689 234.714L138.237 228.802" stroke="#FF8609" stroke-width="3.611" stroke-linecap="round" stroke-linejoin="round"/>
<path d="M137.899 235.739L142.639 229.07" stroke="#FF8609" stroke-width="3.611" stroke-linecap="round" stroke-linejoin="round"/>
<path d="M217.788 207.965C217.078 206.378 216.369 204.792 215.659 203.205" stroke="#FF8609" stroke-width="3.611" stroke-linecap="round" stroke-linejoin="round"/>
<path d="M213.758 207.146C215.984 206.32 218.052 205.116 219.867 203.586" stroke="#FF8609" stroke-width="3.611" stroke-linecap="round" stroke-linejoin="round"/>
<path d="M97.7527 287.842L93.4708 282.611" stroke="#FF8609" stroke-width="3.611" stroke-linecap="round" stroke-linejoin="round"/>
<path d="M92.5221 288.554C94.3456 286.732 96.1684 284.908 97.9911 283.085" stroke="#FF8609" stroke-width="3.611" stroke-linecap="round" stroke-linejoin="round"/>
<path d="M306.738 121.198C307.927 115.396 307.725 109.394 306.147 103.684" stroke="#FF8609" stroke-width="3.611" stroke-linecap="round" stroke-linejoin="round"/>
<path d="M166.397 76.612C165.981 73.3158 166.384 69.9675 167.571 66.864C168.758 63.7605 170.691 60.9974 173.201 58.8195" stroke="#FF8609" stroke-width="3.611" stroke-linecap="round" stroke-linejoin="round"/>
<path d="M216.397 87.3297C217.69 84.8609 218.412 82.1335 218.509 79.3482C218.606 76.5633 218.077 73.7918 216.96 71.2386" stroke="#FF8609" stroke-width="3.611" stroke-linecap="round" stroke-linejoin="round"/>
<path d="M312.25 116.037C311.888 113.344 311.526 110.651 311.163 107.958" stroke="#FF8609" stroke-width="3.611" stroke-linecap="round" stroke-linejoin="round"/>
<path fill-rule="evenodd" clip-rule="evenodd" d="M291.939 369.629C293.363 363.424 289.55 356.113 283.798 353.339C283.11 353.003 282.39 352.738 281.648 352.545L281.411 352.186C278.869 353.829 276.282 355.385 273.65 356.855L274.286 358.008C277.985 358.801 280.223 363.121 279.465 366.83C278.708 370.539 275.585 373.434 272.053 374.788C270.565 375.347 269.011 375.711 267.43 375.869C265.242 376.08 263.039 376.083 260.851 375.879C259.325 375.758 257.799 375.586 256.283 375.359C252.885 374.859 249.536 374.076 246.268 373.02C244.385 372.41 242.536 371.703 240.727 370.902L240.643 370.619C236.752 371.781 232.834 372.833 228.888 373.772L228.949 374.035C237.504 379.325 246.478 382.575 256.346 384.52C258.231 384.895 260.146 385.197 262.066 385.399C267.275 385.95 272.549 385.758 277.502 384.131C284.278 381.908 290.343 376.582 291.939 369.629ZM283.833 358.779C283.502 358.522 283.026 358.582 282.769 358.913C282.513 359.243 282.573 359.719 282.903 359.976C284.247 361.019 285.292 362.397 285.935 363.972C286.577 365.547 286.794 367.264 286.563 368.949C286.506 369.364 286.797 369.746 287.211 369.803C287.626 369.86 288.008 369.569 288.065 369.155C288.332 367.206 288.081 365.221 287.338 363.4C286.596 361.579 285.387 359.985 283.833 358.779Z" fill="url(#paint23_linear_3_146)"/>
</g>
</g>
</g>
<defs>
<linearGradient id="paint0_linear_3_146" x1="226.627" y1="220.967" x2="226.627" y2="334.448" gradientUnits="userSpaceOnUse">
<stop stop-color="#FFB800"/>
<stop offset="1" stop-color="#FF7F0A"/>
</linearGradient>
<linearGradient id="paint1_linear_3_146" x1="263.68" y1="187.141" x2="263.68" y2="331.153" gradientUnits="userSpaceOnUse">
<stop stop-color="#FFB800"/>
<stop offset="1" stop-color="#FF7F0A"/>
</linearGradient>
<linearGradient id="paint2_linear_3_146" x1="259.414" y1="163.099" x2="259.414" y2="173.032" gradientUnits="userSpaceOnUse">
<stop stop-color="#FFB800"/>
<stop offset="1" stop-color="#FF7F0A"/>
</linearGradient>
<linearGradient id="paint3_linear_3_146" x1="261.102" y1="157.308" x2="261.102" y2="165.556" gradientUnits="userSpaceOnUse">
<stop stop-color="#FFB800"/>
<stop offset="1" stop-color="#FF7F0A"/>
</linearGradient>
<linearGradient id="paint4_linear_3_146" x1="172.472" y1="342.489" x2="172.472" y2="380.771" gradientUnits="userSpaceOnUse">
<stop stop-color="#FFB800"/>
<stop offset="1" stop-color="#FF7F0A"/>
</linearGradient>
<linearGradient id="paint5_linear_3_146" x1="186.174" y1="203.188" x2="186.174" y2="331.93" gradientUnits="userSpaceOnUse">
<stop stop-color="#FFB800"/>
<stop offset="1" stop-color="#FF7F0A"/>
</linearGradient>
<linearGradient id="paint6_linear_3_146" x1="327.15" y1="294.851" x2="327.15" y2="321.618" gradientUnits="userSpaceOnUse">
<stop stop-color="#FFB800"/>
<stop offset="1" stop-color="#FF7F0A"/>
</linearGradient>
<linearGradient id="paint7_linear_3_146" x1="208.207" y1="94.051" x2="208.207" y2="202.969" gradientUnits="userSpaceOnUse">
<stop stop-color="#FFB800"/>
<stop offset="1" stop-color="#FF7F0A"/>
</linearGradient>
<linearGradient id="paint8_linear_3_146" x1="263.994" y1="164.289" x2="263.994" y2="203.308" gradientUnits="userSpaceOnUse">
<stop stop-color="#FFB800"/>
<stop offset="1" stop-color="#FF7F0A"/>
</linearGradient>
<linearGradient id="paint9_linear_3_146" x1="148.745" y1="93.4654" x2="148.745" y2="102.026" gradientUnits="userSpaceOnUse">
<stop stop-color="#FFB800"/>
<stop offset="1" stop-color="#FF7F0A"/>
</linearGradient>
<linearGradient id="paint10_linear_3_146" x1="148.113" y1="92.2534" x2="148.113" y2="102.916" gradientUnits="userSpaceOnUse">
<stop stop-color="#FFB800"/>
<stop offset="1" stop-color="#FF7F0A"/>
</linearGradient>
<linearGradient id="paint11_linear_3_146" x1="319.499" y1="130.038" x2="319.499" y2="135.656" gradientUnits="userSpaceOnUse">
<stop stop-color="#FFB800"/>
<stop offset="1" stop-color="#FF7F0A"/>
</linearGradient>
<linearGradient id="paint12_linear_3_146" x1="318.996" y1="128.622" x2="318.996" y2="138.652" gradientUnits="userSpaceOnUse">
<stop stop-color="#FFB800"/>
<stop offset="1" stop-color="#FF7F0A"/>
</linearGradient>
<linearGradient id="paint13_linear_3_146" x1="126.762" y1="127.576" x2="126.762" y2="132.925" gradientUnits="userSpaceOnUse">
<stop stop-color="#FFB800"/>
<stop offset="1" stop-color="#FF7F0A"/>
</linearGradient>
<linearGradient id="paint14_linear_3_146" x1="126.387" y1="126.492" x2="126.387" y2="133.62" gradientUnits="userSpaceOnUse">
<stop stop-color="#FFB800"/>
<stop offset="1" stop-color="#FF7F0A"/>
</linearGradient>
<linearGradient id="paint15_linear_3_146" x1="109.464" y1="273.456" x2="109.464" y2="287.722" gradientUnits="userSpaceOnUse">
<stop stop-color="#FFB800"/>
<stop offset="1" stop-color="#FF7F0A"/>
</linearGradient>
<linearGradient id="paint16_linear_3_146" x1="78.4326" y1="254.909" x2="78.4326" y2="280.411" gradientUnits="userSpaceOnUse">
<stop stop-color="#FFB800"/>
<stop offset="1" stop-color="#FF7F0A"/>
</linearGradient>
<linearGradient id="paint17_linear_3_146" x1="101.438" y1="219.241" x2="101.438" y2="231.547" gradientUnits="userSpaceOnUse">
<stop stop-color="#FFB800"/>
<stop offset="1" stop-color="#FF7F0A"/>
</linearGradient>
<linearGradient id="paint18_linear_3_146" x1="131.132" y1="237.253" x2="131.132" y2="252.412" gradientUnits="userSpaceOnUse">
<stop stop-color="#FFB800"/>
<stop offset="1" stop-color="#FF7F0A"/>
</linearGradient>
<linearGradient id="paint19_linear_3_146" x1="133.093" y1="199.089" x2="133.093" y2="214.425" gradientUnits="userSpaceOnUse">
<stop stop-color="#FFB800"/>
<stop offset="1" stop-color="#FF7F0A"/>
</linearGradient>
<linearGradient id="paint20_linear_3_146" x1="160.022" y1="188.211" x2="160.022" y2="196.057" gradientUnits="userSpaceOnUse">
<stop stop-color="#FFB800"/>
<stop offset="1" stop-color="#FF7F0A"/>
</linearGradient>
<linearGradient id="paint21_linear_3_146" x1="193.193" y1="193.382" x2="193.193" y2="203.012" gradientUnits="userSpaceOnUse">
<stop stop-color="#FFB800"/>
<stop offset="1" stop-color="#FF7F0A"/>
</linearGradient>
<linearGradient id="paint22_linear_3_146" x1="231.803" y1="195.523" x2="231.803" y2="210.146" gradientUnits="userSpaceOnUse">
<stop stop-color="#FFB800"/>
<stop offset="1" stop-color="#FF7F0A"/>
</linearGradient>
<linearGradient id="paint23_linear_3_146" x1="260.563" y1="352.186" x2="260.563" y2="385.677" gradientUnits="userSpaceOnUse">
<stop stop-color="#FFB800"/>
<stop offset="1" stop-color="#FF7F0A"/>
</linearGradient>
<clipPath id="clip0_3_146">
<rect width="403" height="403" fill="white"/>
</clipPath>
</defs>
</svg>
